# xmcd CD database file
# Copyright (C) 1997 Ti Kan
# 
# Track frame offsets:
#     225
#     16565
#     19022
#     36007
#     40077
#     59022
#     84260
#     99372
#     118272
#     134870
#     153350
#     168095
#     186907
# 
# Disc length: 2720 seconds
# 
# Revision: 1
# Processed by: cddbd v1.4b41PL1 Copyright (c) Steve Scherf et al.
# Submitted via: DiscPlay 4.0.4
# 
DISCID=9f0a9d0d
DTITLE=Wayne Rostad - Storyteller
DYEAR=1900
DGENRE=
TTITLE0=Stories to Tell
TTITLE1=Transition to Trinity Bay
TTITLE2=Ruins of British Harbour
TTITLE3=Passage to Grand Manan
TTITLE4=King of Dulse
TTITLE5=Ruby and Rose
TTITLE6=Noisy Jim's Cafe
TTITLE7=Shubenacadie Tinsmith Man
TTITLE8=Back to Slocan
TTITLE9=Sonny, Pull With Me
TTITLE10=Clarence the Caribou
TTITLE11=Song of the Orcas
TTITLE12=When I Grow Up
EXTD=
EXTT0=
EXTT1=
EXTT2=
EXTT3=
EXTT4=
EXTT5=
EXTT6=
EXTT7=
EXTT8=
EXTT9=
EXTT10=
EXTT11=
EXTT12=
PLAYORDER=
